<svg xmlns="http://www.w3.org/2000/svg" width="77" height="77" viewBox="0 0 77 77"><defs><style>.a{opacity:0.28;}.b{fill:#ff7f2f;}</style></defs><g class="a"><path class="b" d="M38.5,0A38.5,38.5,0,1,0,77,38.5,38.543,38.543,0,0,0,38.5,0ZM53.6,34.352a3.207,3.207,0,0,1-4.537,0l-7.357-7.357V57.75a3.208,3.208,0,1,1-6.417,0V26.995l-7.357,7.357A3.208,3.208,0,0,1,23.4,29.815l12.83-12.83a3.178,3.178,0,0,1,1.046-.7,3.211,3.211,0,0,1,2.451,0,3.178,3.178,0,0,1,1.046.7L53.6,29.815A3.205,3.205,0,0,1,53.6,34.352Z"/></g></svg>